<?xml version="1.0" encoding="utf-8"?>
<!-- Generator: Adobe Illustrator 22.0.0, SVG Export Plug-In . SVG Version: 6.00 Build 0)  -->
<svg version="1.1" id="_x30_0628a83-0b9a-47d0-8619-b1ca24d7a26b"
	 xmlns="http://www.w3.org/2000/svg" xmlns:xlink="http://www.w3.org/1999/xlink" x="0px" y="0px" viewBox="0 0 1006.4 786.8"
	 style="enable-background:new 0 0 1006.4 786.8;" xml:space="preserve">
<style type="text/css">
	.st0{fill:#065FD4;}
	.st1{fill:none;stroke:#535461;stroke-miterlimit:10;}
	.st2{opacity:0.2;fill:#F5F5F5;enable-background:new    ;}
	.st3{opacity:0.1;fill:#065FD4;}
	.st4{fill:url(#SVGID_1_);}
	.st5{fill:url(#SVGID_2_);}
	.st6{fill:url(#SVGID_3_);}
	.st7{fill:url(#SVGID_4_);}
	.st8{fill:url(#SVGID_5_);}
	.st9{fill:url(#SVGID_6_);}
	.st10{opacity:0.1;}
	.st11{fill:url(#SVGID_7_);}
	.st12{fill:url(#SVGID_8_);}
	.st13{fill:url(#SVGID_9_);}
	.st14{fill:url(#SVGID_10_);}
	.st15{opacity:0.2;}
	.st16{fill:url(#SVGID_11_);}
	.st17{fill:url(#SVGID_12_);}
	.st18{fill:#E8EAF1;}
	.st19{fill:#F3F5F7;}
	.st20{fill:#FFFFFF;}
	.st21{opacity:0.1;enable-background:new    ;}
	.st22{fill:#5F546F;}
	.st23{opacity:0.2;enable-background:new    ;}
	.st24{fill:url(#SVGID_13_);}
	.st25{fill:#DB8B8B;}
	.st26{fill:#472727;}
	.st27{fill:#D8A18B;}
	.st28{opacity:0.3;fill:#FFFFFF;enable-background:new    ;}
	.st29{fill:#535461;}
	.st30{fill:#F88787;}
	.st31{opacity:0.5;fill:#FFFFFF;enable-background:new    ;}
</style>
<title>basketball</title>
<path class="st0" d="M235.2,634.7c0,0,20.5,20.5,8.9,50.9s19.8,80.9,19.8,80.9l-1-0.2c-42.1-7.4-63-55.5-39.6-91.3
	C232.2,661.8,239.3,646.2,235.2,634.7z"/>
<path class="st1" d="M235.2,634.7c0,0,11.6,25.1,0,45.6s-2,78,28.7,86.2"/>
<path class="st0" d="M198.8,717.5c0,0,23.4-3.7,25.5,17.2s44.9,23.9,44.9,23.9l-0.8,0.5c-35.4,23.2-69.1,14.8-64-16
	C206.2,731.6,206.1,720.1,198.8,717.5z"/>
<path class="st2" d="M198.8,717.5c0,0,23.4-3.7,25.5,17.2s44.9,23.9,44.9,23.9l-0.8,0.5c-35.4,23.2-69.1,14.8-64-16
	C206.2,731.6,206.1,720.1,198.8,717.5z"/>
<path class="st1" d="M198.8,717.5c0,0,18.1,4,16.6,20.5s26.9,36.3,53.8,20.6"/>
<path class="st3" d="M886.3,364.1c11.4,23.5,4.2,57.2,20.4,76.4c11.9,14.1,31.6,14,45.1,25.9c10.5,9.3,15.7,24.4,20.4,38.8l23.1,70
	c10.5,31.9,19.5,72.9-1.7,96.3c-12.7,14-31.9,15.6-49.2,14.1C818.9,674.8,718.1,548.3,593.1,532c-88.4-11.5-175.6,33.9-264.5,31.4
	c-47-1.3-92.9-16-138.2-30.6c-34.9-11.2-73.6-26-90.2-63.9c-7.4-16.9-9.7-37.4-20.8-51.3c-8.5-10.7-20.7-15.7-31.2-23.5
	C2.3,360.4-2.9,285,1.1,221.5C3.3,186.3,7,150.2,21,119S61.1,61.9,91,60.8c18.9-0.7,37,8.4,55.4,13.4c18.4,5,40,5.2,53.8-10
	c11.3-12.5,14.9-32.5,26.2-45c8.8-9.7,21.1-13.5,33.1-15.8C323.6-9,391.8,12.6,442.1,61.1c12.2,11.8,23.8,25.4,38.8,31.4
	c19.9,8.1,41.6,1.2,62.6,1.4c74.1,0.6,124.4,80.8,176.6,131.4c30.5,29.6,60.1,35.9,93.2,55.6C833.8,293.2,873.9,338.7,886.3,364.1z"
	/>
<linearGradient id="SVGID_1_" gradientUnits="userSpaceOnUse" x1="281.77" y1="19.58" x2="281.77" y2="429.22" gradientTransform="matrix(1 0 0 -1 0 786)">
	<stop  offset="0" style="stop-color:#808080;stop-opacity:0.25"/>
	<stop  offset="0.54" style="stop-color:#808080;stop-opacity:0.12"/>
	<stop  offset="1" style="stop-color:#808080;stop-opacity:0.1"/>
</linearGradient>
<rect x="259.4" y="356.8" class="st4" width="44.8" height="409.6"/>
<linearGradient id="SVGID_2_" gradientUnits="userSpaceOnUse" x1="282.785" y1="1.24" x2="282.785" y2="32.83" gradientTransform="matrix(1 0 0 -1 0 786)">
	<stop  offset="0" style="stop-color:#808080;stop-opacity:0.25"/>
	<stop  offset="0.54" style="stop-color:#808080;stop-opacity:0.12"/>
	<stop  offset="1" style="stop-color:#808080;stop-opacity:0.1"/>
</linearGradient>
<polygon class="st5" points="353.1,784.8 212.5,784.8 262.4,753.2 300.1,753.2 "/>
<linearGradient id="SVGID_3_" gradientUnits="userSpaceOnUse" x1="376" y1="368.8989" x2="376" y2="665.85" gradientTransform="matrix(1 0 0 -1 -96.78 729.4)">
	<stop  offset="0" style="stop-color:#808080;stop-opacity:0.25"/>
	<stop  offset="0.54" style="stop-color:#808080;stop-opacity:0.12"/>
	<stop  offset="1" style="stop-color:#808080;stop-opacity:0.1"/>
</linearGradient>
<path class="st6" d="M61.7,146.9c0,0,189.6-187.5,435.1,0v162c0,0-192.6,116.2-435.1,0L61.7,146.9z"/>
<linearGradient id="SVGID_4_" gradientUnits="userSpaceOnUse" x1="376" y1="378.2656" x2="376" y2="656.4722" gradientTransform="matrix(1 0 0 -1 -96.78 729.4)">
	<stop  offset="0" style="stop-color:#808080;stop-opacity:0.25"/>
	<stop  offset="0.54" style="stop-color:#808080;stop-opacity:0.12"/>
	<stop  offset="1" style="stop-color:#808080;stop-opacity:0.1"/>
</linearGradient>
<path class="st7" d="M75.4,151c0,0,177.6-175.6,407.6,0v151.8c0,0-180.4,108.8-407.6,0L75.4,151z"/>
<linearGradient id="SVGID_5_" gradientUnits="userSpaceOnUse" x1="278.705" y1="453.67" x2="278.705" y2="545.38" gradientTransform="matrix(1 0 0 -1 0 786)">
	<stop  offset="0" style="stop-color:#808080;stop-opacity:0.25"/>
	<stop  offset="0.54" style="stop-color:#808080;stop-opacity:0.12"/>
	<stop  offset="1" style="stop-color:#808080;stop-opacity:0.1"/>
</linearGradient>
<rect x="224.7" y="240.6" class="st8" width="108" height="91.7"/>
<linearGradient id="SVGID_6_" gradientUnits="userSpaceOnUse" x1="278.705" y1="461.46" x2="278.705" y2="537.6" gradientTransform="matrix(1 0 0 -1 0 786)">
	<stop  offset="0" style="stop-color:#808080;stop-opacity:0.25"/>
	<stop  offset="0.54" style="stop-color:#808080;stop-opacity:0.12"/>
	<stop  offset="1" style="stop-color:#808080;stop-opacity:0.1"/>
</linearGradient>
<rect x="233.9" y="248.4" class="st9" width="89.7" height="76.1"/>
<g class="st10">
	
		<linearGradient id="SVGID_7_" gradientUnits="userSpaceOnUse" x1="379.455" y1="257.3" x2="379.455" y2="386.16" gradientTransform="matrix(1 0 0 -1 -96.78 729.4)">
		<stop  offset="0" style="stop-color:#808080;stop-opacity:0.25"/>
		<stop  offset="0.54" style="stop-color:#808080;stop-opacity:0.12"/>
		<stop  offset="1" style="stop-color:#808080;stop-opacity:0.1"/>
	</linearGradient>
	<path class="st11" d="M316.5,472.1l-34.1-58.7L252.2,470L226,410.7l-27.3,60.4l-1-0.4c11-32.1,0.1-123.2,0-124.1l-0.4-3.4
		l28.7,64.9l23.9-53l32.5,56.1l29.8-55.8l25.2,57.5l24.5-65.8l6.1-1.2l-0.1,0.7c-0.2,0.9-16.9,89-7.4,118.9l2.3,5.2l-0.9,0.5
		c-1-1.7-1.8-3.4-2.3-5.3l-22-50.2L316.5,472.1z M283,412.3l33.3,57.4l20.6-55.4l-24.8-56.5L283,412.3z M226.5,409.4l25.7,58.3
		l29.6-55.4L250,357.4L226.5,409.4z M199.1,349.8c1.7,15.7,8.5,82.6,1.4,114.8l25-55.3L199.1,349.8z M338,414.3l20.1,45.8
		c-6.1-32.6,7-104.1,8.6-112.9l-4.1,0.8L338,414.3z"/>
</g>
<g class="st10">
	
		<linearGradient id="SVGID_8_" gradientUnits="userSpaceOnUse" x1="372.97" y1="257.17" x2="372.97" y2="379.3" gradientTransform="matrix(1 0 0 -1 -96.78 729.4)">
		<stop  offset="0" style="stop-color:#808080;stop-opacity:0.25"/>
		<stop  offset="0.54" style="stop-color:#808080;stop-opacity:0.12"/>
		<stop  offset="1" style="stop-color:#808080;stop-opacity:0.1"/>
	</linearGradient>
	<path class="st12" d="M227.7,472.2l-25.3-63.3l1-0.4l24.4,61l24.4-55.8L219.6,354l0.9-0.5l32.2,59.1l24.4-55.7h0.3l72.5-6.9
		l-67.1,119.8l-29.9-55L227.7,472.2z M253.4,413.8l29.4,54.1l65.3-116.5l-70.2,6.6L253.4,413.8z"/>
</g>
<g class="st10">
	
		<linearGradient id="SVGID_9_" gradientUnits="userSpaceOnUse" x1="317.13" y1="316.91" x2="317.13" y2="434.55" gradientTransform="matrix(1 0 0 -1 0 786)">
		<stop  offset="0" style="stop-color:#808080;stop-opacity:0.25"/>
		<stop  offset="0.54" style="stop-color:#808080;stop-opacity:0.12"/>
		<stop  offset="1" style="stop-color:#808080;stop-opacity:0.1"/>
	</linearGradient>
	<polygon class="st13" points="335.8,469.1 335.3,468.1 275.2,351.9 276.1,351.5 335.7,466.6 358.1,408.6 359.1,408.9 	"/>
</g>
<linearGradient id="SVGID_10_" gradientUnits="userSpaceOnUse" x1="377.53" y1="369.55" x2="377.53" y2="398.09" gradientTransform="matrix(1 0 0 -1 -96.78 729.4)">
	<stop  offset="0" style="stop-color:#808080;stop-opacity:0.25"/>
	<stop  offset="0.54" style="stop-color:#808080;stop-opacity:0.12"/>
	<stop  offset="1" style="stop-color:#808080;stop-opacity:0.1"/>
</linearGradient>
<path class="st14" d="M280.8,331.3c-47.8,0-86.6,6.4-86.6,14.3s38.8,14.3,86.6,14.3s86.6-6.4,86.6-14.3S328.6,331.3,280.8,331.3z
	 M280.8,353.7c-43.9,0-79.5-4.1-79.5-9.2s35.6-9.2,79.5-9.2s79.5,4.1,79.5,9.2S324.6,353.7,280.8,353.7L280.8,353.7z"/>
<g class="st15">
	
		<linearGradient id="SVGID_11_" gradientUnits="userSpaceOnUse" x1="377.53" y1="369.55" x2="377.53" y2="398.09" gradientTransform="matrix(1 0 0 -1 -96.78 729.4)">
		<stop  offset="0" style="stop-color:#808080;stop-opacity:0.25"/>
		<stop  offset="0.54" style="stop-color:#808080;stop-opacity:0.12"/>
		<stop  offset="1" style="stop-color:#808080;stop-opacity:0.1"/>
	</linearGradient>
	<path class="st16" d="M280.8,331.3c-47.8,0-86.6,6.4-86.6,14.3s38.8,14.3,86.6,14.3s86.6-6.4,86.6-14.3S328.6,331.3,280.8,331.3z
		 M280.8,353.7c-43.9,0-79.5-4.1-79.5-9.2s35.6-9.2,79.5-9.2s79.5,4.1,79.5,9.2S324.6,353.7,280.8,353.7L280.8,353.7z"/>
</g>
<linearGradient id="SVGID_12_" gradientUnits="userSpaceOnUse" x1="377.53" y1="372.6" x2="377.53" y2="401.14" gradientTransform="matrix(1 0 0 -1 -96.78 729.4)">
	<stop  offset="0" style="stop-color:#808080;stop-opacity:0.25"/>
	<stop  offset="0.54" style="stop-color:#808080;stop-opacity:0.12"/>
	<stop  offset="1" style="stop-color:#808080;stop-opacity:0.1"/>
</linearGradient>
<path class="st17" d="M280.8,328.3c-47.8,0-86.6,6.4-86.6,14.3s38.8,14.3,86.6,14.3s86.6-6.4,86.6-14.3S328.6,328.3,280.8,328.3z
	 M280.8,350.7c-43.9,0-79.5-4.1-79.5-9.2s35.6-9.2,79.5-9.2s79.5,4.1,79.5,9.2S324.6,350.7,280.8,350.7L280.8,350.7z"/>
<rect x="259.7" y="358" class="st18" width="44" height="402"/>
<polygon class="st18" points="351.7,778 213.7,778 262.7,747 299.7,747 "/>
<path class="st18" d="M65.7,152c0,0,186-184,427,0v159c0,0-189,114-427,0V152z"/>
<path class="st19" d="M79.2,156.1c0,0,174.2-172.4,400,0V305c0,0-177,106.8-400,0V156.1z"/>
<rect x="225.7" y="244" class="st20" width="106" height="90"/>
<rect x="234.7" y="251.7" class="st19" width="88" height="74.7"/>
<path class="st21" d="M315.8,471.2l-33.4-57.6l-29.7,55.6l-25.7-58.2l-26.7,59.3l-0.9-0.4c10.8-31.5,0.1-120.9,0-121.8l-0.4-3.4
	l28.1,63.7l23.5-52l31.9,55l29.3-54.8l24.7,56.4l24-64.6l6-1.2l-0.1,0.7c-0.2,0.9-16.6,87.3-7.2,116.6l2.2,5.1l-0.9,0.5
	c-1-1.6-1.7-3.4-2.3-5.2l-21.6-49.3L315.8,471.2z M282.9,412.5l32.7,56.3l20.2-54.4L311.5,359L282.9,412.5z M227.5,409.7l25.3,57.2
	l29-54.4l-31.2-53.9L227.5,409.7z M200.6,351.3c1.7,15.4,8.4,81,1.3,112.7l24.5-54.3L200.6,351.3z M336.9,414.5l19.7,44.9
	c-6-32,6.9-102.2,8.5-110.7l-4,0.8L336.9,414.5z"/>
<path class="st21" d="M228.7,471.3l-24.8-62.1l0.9-0.4l23.9,59.9l24-54.7l-32-58.7l0.9-0.5l31.6,58l24-54.6h0.3l71.1-6.7
	l-65.9,117.6l-29.4-54L228.7,471.3z M253.9,414l28.9,53l64.1-114.4l-68.9,6.5L253.9,414z"/>
<polygon class="st21" points="334.8,468.3 334.3,467.3 275.3,353.3 276.2,352.8 334.6,465.8 356.6,408.9 357.6,409.2 "/>
<path class="st22" d="M280.7,333c-46.9,0-85,6.3-85,14s38.1,14,85,14s85-6.3,85-14S327.7,333,280.7,333z M280.7,355
	c-43.1,0-78-4-78-9s34.9-9,78-9s78,4,78,9S323.8,355,280.7,355z"/>
<path class="st23" d="M280.7,333c-46.9,0-85,6.3-85,14s38.1,14,85,14s85-6.3,85-14S327.7,333,280.7,333z M280.7,355
	c-43.1,0-78-4-78-9s34.9-9,78-9s78,4,78,9S323.8,355,280.7,355z"/>
<path class="st22" d="M280.7,330c-46.9,0-85,6.3-85,14s38.1,14,85,14s85-6.3,85-14S327.7,330,280.7,330z M280.7,352
	c-43.1,0-78-4-78-9s34.9-9,78-9s78,4,78,9S323.8,352,280.7,352z"/>
<path class="st3" d="M591.4,736.4c-27.1,7.6-56.9-0.2-83.6,8.8c-2.3,0.7-4.5,1.8-6.5,3.3c-6.4,5.6-3.9,16.4,1.8,22.7
	c9.1,10,23.4,13.1,36.9,14.5c65.7,6.5,131.4-17.2,197.2-12.2c9.8,0.8,21.2,1.6,27.7-5.7c4.8-5.4,5.2-13.7,2.8-20.5
	c-4.4-12.5-16.5-21.1-29.3-24.7c-12.8-3.6-26.3-3-39.6-2.4c-18,0.8-36.2,0.6-54.1,1.8C625.6,723.2,609.6,731.3,591.4,736.4z"/>
<linearGradient id="SVGID_13_" gradientUnits="userSpaceOnUse" x1="685.335" y1="109.5985" x2="685.335" y2="506.6009" gradientTransform="matrix(1 0 0 -1 -96.78 729.4)">
	<stop  offset="0" style="stop-color:#808080;stop-opacity:0.25"/>
	<stop  offset="0.54" style="stop-color:#808080;stop-opacity:0.12"/>
	<stop  offset="1" style="stop-color:#808080;stop-opacity:0.1"/>
</linearGradient>
<path class="st24" d="M748.2,587.4c-7-1-19.9-12-19.9-12c-1.9-2.9-5.2-4.5-8.6-4.4L706.8,553c-5-8.6-10.9-16.5-17.6-23.8
	c-1.1-1.2-2.2-2.4-3.4-3.5c-3.5-3.4-7.2-6.6-11.1-9.5c-2.6-1.9-5.1-4.1-7.3-6.4c-2.1-2.1-4.1-4.3-6-6.6l-8.9-12.5l-0.6-0.8
	c0.2-1.2,0.3-2.5,0.2-3.7c0-0.3-0.1-0.6-0.1-0.9L615,441.8l-11-22.4l0,0l0,0c-0.1,0.1-0.6,0.5-1.3,1l-0.2-0.6v-0.3v-1.9
	c-0.1-15.5,3.8-30.8,11.2-44.5c2.5-4.6,3.8-9.7,3.8-14.9c0-0.4,0-0.8,0-1.3l-0.2-0.2c-0.3-0.4-1.2-1.3-2.2-2.6
	c0.1-0.3,0.3-0.5,0.4-0.8c4.6-8.4,10.9-9.9,10.9-9.9c21.4-3,36.9-17.5,36.9-17.5c16-9,13-17,13-17l-14.5-34.9l-9-18.5l-2.5-8.5
	c-0.8-5.6-2-11.2-3.5-16.7c-2.1-8.1-12.7-10.4-17.9-3.8c-0.1,0.2-0.2,0.3-0.4,0.5c-4.7,6.8-3.5,16,2.9,21.4c5,4.3,9.3,8.6,9.3,8.6
	c9,2.5,15,48.9,15,48.9l-6,4c-9.3,0.5-18,4.8-23.9,12h-18.8c0-0.1,0.1-0.2,0.1-0.2l-3.1-0.7l-9-2l-3.3-0.8l0,0.2l-0.9-0.2v0.1
	c-1.3-2-2.4-4.1-3.4-6.2c0.3,0,0.5,0,0.8,0c0.1-0.1,0.1-0.3,0.2-0.5h0.3c1.4-3,0.2-6.8,1.5-9.8c0.7-1.3,1.5-2.5,2.4-3.7
	c2-3.5,1.8-7.8,1.2-11.7c-0.6-4.3-1.6-8.6-4.1-12.2c-2.5-3.6-6.7-6.1-11-5.6c-3.4,0.5-6.4,2.8-9.8,3c-2.4,0.1-4.7-0.8-7-1.5
	c-2.5-0.8-5-1.4-7.6-1.7c-1.7-0.2-3.7-0.3-4.9,1l-0.1,0.1c-0.1,0.1-0.3,0.2-0.4,0.4c-0.5,0.6-0.8,1.2-1,1.9l-2.2,6.1
	c-0.2,0.4-0.2,0.9,0,1.4c0.2,0.2,0.6,0.3,0.8,0.5c1.8,1.1-0.6,3.9,0.8,5.3c0.9,0.8,2.7,0.9,4.6,0.9c-5.8,9.1-3.1,21.1,6,26.8
	c1.9,1.2,4,2.1,6.2,2.6c0,0.3,0,0.7,0,1c0,2.6-0.2,5.3-0.6,7.9l0,0l-1.5,0.1c-2.4,0.1-7.3,0.3-11.6,0.1c-1.4-0.1-2.9-0.2-4.3-0.4
	c0,0-0.2,1.8-0.5,4.6l-1,0.3c-9.3,2.7-17.4,8.5-22.9,16.5l-22.4,13c0,0-10-2.5-38.9,22.4l-20.9,11c0,0-32,9.4-26,18.9
	c6,9.5,35.9-11.5,35.9-11.5l12-5.5l36.4-16c0,0,12-8,20.9-11c8.9-3,18-12,18-12l2.2-0.1l1-0.1c-0.1,0.3-0.3,0.5-0.5,0.8
	c-0.1,0.1-0.2,0.3-0.3,0.4v80.3l-0.2,2.2h0.1l0,0l-2.4,32.7c0,0,0.5,15-1.5,23.4s1.5,42.9,1.5,42.9s1.3,0,3.4-0.2l-0.1,1l-0.9,14.1
	c0,0-1.7,5.4,8,8.3c2.2,0.6,4.3,1.6,6.3,2.9l11.2,7.3l11.5,7l2.3,4.9l0.1,0.2l-2.4-1.5c0,0-2,5,4.5,11.5c4.9,4.4,7.5,10.9,7,17.5
	c0,0,1,12,7,9c0,0,9.5-2,9-18.5c0,0-3.8-13.7,0.6-19.5c0.1-0.2,0.2-0.3,0.4-0.5c5-5.5-1.5-14-1.5-14s-11.6-4.7-12.2,3.1l-0.5-0.2
	c-2.1-1-5.8-3.4-9.8-9.3c0,0-6.5-16.5-16.4-18l1.7-9.5l0.2-1.1c3.4-1.6,6.2-3.7,7.6-6.4l0,0l0.1-0.1v0v-0.1v-0.1v-0.1l0.1-0.1V525
	l0-0.1l0.1-0.1v-0.1l0.1-0.1l0.2-0.1l0.1-0.2l0.1-0.1l0.1-0.2l0.1-0.1l0.1-0.2l0.1-0.2l0.1-0.1l0.1-0.2l0.1-0.1l0.4-0.9l0.1-0.1
	l0.1-0.3l0.1-0.2l0.1-0.3l0.1-0.2l0.2-0.3l0.1-0.1l0.2-0.3l0.1-0.2l0.2-0.4l0.1-0.2l0.2-0.4l0.1-0.2l0.2-0.4l0.1-0.2l0.2-0.4
	l0.1-0.1l0.2-0.5v-0.1c3.2-7.4,7.2-18.1,7-24.4c0-0.5,0-1,0-1.5h-0.1v-0.1c0-0.2-0.1-0.4-0.1-0.6l26.9,6l16,17.5h0.1l0,0l0,0l0,0
	h0.1h0.1h0.1h0.1l0.1,0h0.1l0.1-0.1l0.1,0l0.1-0.1l0.1-0.1l0.2-0.1l0.1-0.1l0.2-0.1l0.1-0.1l0.2-0.1l0.1-0.1l0.2-0.1l0.1-0.1
	l0.2-0.1l0.2-0.1l0.2-0.1l0.2-0.4l0.3-0.2l0.2-0.1l0.3-0.2l0.2-0.1l0.3-0.2l0.2-0.1l0.3-0.2l0.2-0.1l0.3-0.2l0.2-0.1l0.3-0.2h0.1
	l0.6,0.7l7,8.1c7,3,22.9,18,22.9,18c1.8,4.4,9.6,10.7,13.6,13.7c1.1,0.8,2.3,1.6,3.6,2.2c2.2,1.1,5.2,3.8,8.1,6.5
	c3.7,3.6,7.6,7,11.8,10c3.9,2.9,7.3,6.4,10.2,10.3l0,0l0.3,0.4c-2.4,8,11.2,16.1,11.2,16.1c5-1,20.4,13,20.4,13s14.5,11.5,20.4-1
	S748.2,587.4,748.2,587.4z M721.8,574l-2-2.8l0,0C720.9,571.7,721.7,572.8,721.8,574L721.8,574z"/>
<path class="st25" d="M597.4,329.2c0,0-50.4,29.4-39.7,12.7c4.7-7,7.1-15.3,7-23.7c0-2.8-0.4-5.5-1.1-8.1l21.1-9.8
	c-0.4,2.9-0.1,5.8,0.8,8.6C588.4,319.4,597.4,329.2,597.4,329.2z"/>
<path class="st21" d="M585.5,308.9c-4.1,7.3-12.5,11.1-20.7,9.4c0-2.8-0.4-5.5-1.1-8.1l21.1-9.8
	C584.3,303.2,584.6,306.2,585.5,308.9z"/>
<circle class="st25" cx="568.8" cy="298.6" r="19.1"/>
<path class="st21" d="M556.6,288.5c1.8,0.4,3.5,1.5,4.6,3c1.3,2,1.2,4.7,3,6.3c1.3,1,3,1.4,4.7,1.2c1.6-0.2,3.3-0.3,4.9-0.2
	c2.7,0.4,4.8,2.4,6.3,4.6c1.3,2.3,2.5,4.7,3.6,7.2c0.4,1,1,1.9,1.8,2.6c0.8,0.8,1.9,1.1,2.9,0.9c1.4-3,0.2-6.6,1.5-9.6
	c0.7-1.3,1.5-2.5,2.3-3.7c2-3.4,1.7-7.6,1.1-11.5c-0.6-4.2-1.6-8.5-4-11.9c-2.4-3.5-6.6-6-10.8-5.5c-3.3,0.4-6.3,2.7-9.6,2.9
	c-2.4,0.1-4.7-0.8-6.9-1.5c-2.4-0.8-4.9-1.4-7.4-1.7c-1.7-0.2-3.7-0.3-4.8,1c-0.4,0.6-0.8,1.2-1,1.9l-2.2,6c-0.2,0.4-0.2,0.9,0,1.3
	c0.2,0.2,0.5,0.3,0.8,0.5c1.7,1.1-0.6,3.9,0.8,5.2S554.6,288,556.6,288.5z"/>
<path class="st26" d="M557.1,288c1.8,0.4,3.5,1.5,4.6,3c1.3,2,1.2,4.7,3,6.3c1.3,1,3,1.4,4.7,1.2c1.6-0.2,3.3-0.3,4.9-0.2
	c2.7,0.4,4.8,2.4,6.3,4.6c1.3,2.3,2.5,4.7,3.6,7.2c0.4,1,1,1.9,1.8,2.6c0.8,0.8,1.9,1.1,2.9,0.9c1.4-3,0.2-6.6,1.5-9.6
	c0.7-1.3,1.5-2.5,2.3-3.7c2-3.4,1.7-7.6,1.1-11.5c-0.6-4.2-1.6-8.5-4-11.9c-2.4-3.5-6.6-6-10.8-5.5c-3.3,0.4-6.3,2.7-9.6,2.9
	c-2.4,0.1-4.7-0.8-6.9-1.5c-2.4-0.8-4.9-1.4-7.4-1.7c-1.7-0.2-3.7-0.3-4.8,1c-0.4,0.6-0.8,1.2-1,1.9l-2.2,6c-0.2,0.4-0.2,0.9,0,1.3
	c0.2,0.2,0.5,0.3,0.8,0.5c1.7,1.1-0.6,3.9,0.8,5.2S555.1,287.5,557.1,288z"/>
<path class="st27" d="M662.1,327.8c0,0-15.2,14.2-36.2,17.1c0,0-6.3,1.4-10.8,9.7c-1.6,3.1-2.8,6.4-3.4,9.9l-22.6-38.3l-1.4-2.4
	h37.7c5.9-7,14.4-11.3,23.5-11.8l5.9-3.9c0,0-5.9-45.5-14.7-48c0,0-4.3-4.3-9.2-8.5c-6.2-5.2-7.4-14.3-2.8-21
	c0.1-0.2,0.2-0.3,0.4-0.5c5-6.5,15.4-4.3,17.5,3.7c1.5,5.4,2.6,10.9,3.4,16.5l2.5,8.3l8.8,18.1l14.2,34.3
	C674.8,311.1,677.8,319,662.1,327.8z"/>
<path class="st27" d="M549.4,329.7l-2.9,26l-6.6,0.4l-2.2,0.1c0,0-8.8,8.8-17.6,11.8c-8.8,2.9-20.6,10.8-20.6,10.8l-35.7,15.6
	l-11.8,5.4c0,0-29.4,20.6-35.3,11.3s25.5-18.6,25.5-18.6l20.6-10.8c28.4-24.5,38.2-22,38.2-22l22-12.7c5.4-7.9,13.3-13.6,22.5-16.2
	C546.8,330.2,548.1,329.9,549.4,329.7z"/>
<path class="st21" d="M615.1,354.6c-1.6,3.1-2.8,6.4-3.4,9.9l-22.6-38.3c0.5-0.7,1-1.5,1.4-2.4c0.6-1.2,1-2.4,1.4-3.7l3.3,0.7l8.8,2
	l3.1,0.7c0,0.1-0.1,0.2-0.1,0.2C602.8,335.9,610.6,348.6,615.1,354.6z"/>
<path class="st21" d="M549.4,329.7l-2.9,26l-6.6,0.4c2.8-5,4.7-18.2,5.6-25.4C546.8,330.3,548.1,330,549.4,329.7z"/>
<path class="st0" d="M613.3,373.6c-7.3,13.5-11.1,28.7-11,44.1v1.9v0.2c0,0,5.4,14.7,0,14.7s-4.9,7.4-11.8,8.8s-30.9,11.8-38.2,7.4
	c-7.3-4.4-12.2-13.7-12.2-13.7v-79.8c0.1-0.1,0.2-0.2,0.3-0.4c4.2-6,6.6-31,6.6-31c1.4,0.2,2.8,0.4,4.2,0.4c4.2,0.2,9,0,11.4-0.1
	l1.5-0.1c4.2,3.3,10,3.8,12.9,3.8c1,0,2,0.1,3,0.2c8.3,1.2,10.8-9.8,10.8-9.8l3.3,0.7l8.8,2l3.1,0.7c-5.5,15.6,9,32.3,10.8,34.3
	l0.2,0.2C617.1,363.5,615.9,368.8,613.3,373.6z"/>
<path class="st28" d="M551.2,326.2c0,6.5-1.5,28-11.1,31.1v-0.2c0.1-0.1,0.2-0.2,0.3-0.4c4.2-6,6.6-31,6.6-31
	C548.4,326,549.8,326.2,551.2,326.2z"/>
<path class="st28" d="M616.8,357.9c-17.9-0.9-15.8-24.4-13.9-35l3.1,0.7C600.5,339.2,615,355.9,616.8,357.9z"/>
<g class="st10">
	<path d="M617,358.6c0-0.1-0.1-0.2-0.2-0.2c-4-1,0.4,0.5-4-1c-0.2-0.1,0.2-0.7,0.2-0.7c0.1,5.4-1.1,10.7-3.7,15.4
		c-7.3,13.5-11.1,28.7-11,44.1v1.9v0.2c0,0,5.4,14.7,0,14.7s-4.9,7.4-11.8,8.8c-6.3,1.4-26.9,10.1-36,8.1c0.6,0.4,1.1,0.8,1.7,1.1
		c7.3,4.4,31.3-5.9,38.2-7.4c6.8-1.5,6.4-8.8,11.8-8.8s0-14.7,0-14.7v-0.2v-1.9c-0.1-15.4,3.7-30.6,11-44.1
		C615.9,369.3,617.2,364,617,358.6z"/>
	<path d="M565.3,327c-0.2-0.2-0.5-0.3-0.7-0.5h-0.5C564.5,326.7,564.9,326.9,565.3,327z"/>
</g>
<path class="st27" d="M719.9,572.2l-5.9,13.2c-1.7-2.8-3.5-5.4-5.5-8l0,0c-2.9-3.8-6.2-7.2-10-10.1c-4.1-3-8-6.3-11.6-9.8
	c-2.8-2.7-5.8-5.3-7.9-6.4c-1.2-0.6-2.4-1.4-3.6-2.2c-3.9-3-11.6-9.2-13.4-13.5c0,0-15.7-14.7-22.5-17.6l-6.8-8l-7.9-9.2l20.1-20.1
	l5.9,8.3l8.8,12.3c4,4.9,8.5,9.4,13.6,13.3c5,3.6,9.6,7.8,13.8,12.3c6.6,7.1,12.3,15,17.2,23.4l12.6,17.8l0.1,0.1l2,2.8L719.9,572.2
	z"/>
<path class="st27" d="M595.5,573.7l-7.8,18.6l-6.4-6.9l-2.6-5.5l-2.3-4.8l-11.3-6.9l-11-7.2c-1.9-1.2-4-2.2-6.2-2.8
	c-9.5-2.8-7.9-8.1-7.9-8.1l0.9-13.9l0.6-9.7l26-2.9l-1.3,7.3l-1.6,9.3c9.8,1.5,16.2,17.6,16.2,17.6c3.9,5.8,7.5,8.2,9.6,9.2
	c0.5,0.3,1.1,0.5,1.7,0.6L595.5,573.7z"/>
<path class="st21" d="M716.9,568l-0.2-0.1h0.1L716.9,568z"/>
<path class="st21" d="M719.9,572.2l-5.9,13.2c-1.7-2.8-3.5-5.4-5.5-8c0.9,0.9,5.9,5.4,7.5,1.3c0.6-1.7,1.3-3.4,2.1-5
	c0.5-0.9,0.7-1.9,0.7-2.8L719.9,572.2z"/>
<path class="st21" d="M719.4,571.3l-2-2.8l-0.1-0.1l-12.6-17.8c-4.9-8.4-10.6-16.2-17.2-23.4c-4.2-4.6-8.8-8.7-13.8-12.3
	c-5-3.9-9.6-8.3-13.6-13.3l-8.8-12.2l-5.9-8.3l-0.9,0.9l5.3,7.4l8.8,12.3c4,4.9,8.5,9.4,13.6,13.2c5,3.6,9.6,7.8,13.8,12.3
	c6.6,7.1,12.3,15,17.2,23.4l12.7,17.8l0.1,0.1l2,2.8l1,1.4l-5.3,11.8c0.5,0.9,0.9,1.4,0.9,1.4l5.9-13.2L719.4,571.3z"/>
<path class="st21" d="M595.5,573.7l-7.8,18.6l-6.4-6.9l-2.6-5.5l7.5,5c7.4-4.6,4.5-16.4,4.2-17.8c0.5,0.3,1.1,0.5,1.7,0.6
	L595.5,573.7z"/>
<path class="st29" d="M590.8,567.5c0,0,3.7,13-4.2,17.9l-10.3-6.9c0,0-2,4.9,4.4,11.3c4.8,4.3,7.4,10.7,6.9,17.1c0,0,1,11.8,6.9,8.8
	c0,0,9.3-2,8.8-18.1c0,0-3.7-13.5,0.6-19.1c0.1-0.2,0.2-0.3,0.4-0.5c4.9-5.4-1.5-13.7-1.5-13.7S591.3,559.7,590.8,567.5z"/>
<path class="st21" d="M602.3,434.6c-5.4,0-4.9,7.4-11.8,8.8s-30.9,11.8-38.2,7.4c-7.3-4.4-12.2-13.7-12.2-13.7v-1
	c12.2,6.4,27.4,0,27.4,0c10.8,2.1,29.4-12.1,34.8-16.4v0.2C602.4,419.9,607.7,434.6,602.3,434.6z"/>
<path class="st21" d="M541.6,526.6l26-2.9l-1.3,7.3c-8.1,3.7-19.6,4.9-25.3,5.2L541.6,526.6z"/>
<path class="st21" d="M650.9,488.9c-1.2,9-11.3,16.7-18.1,21l-7.9-9.2l20.1-20.1L650.9,488.9z"/>
<path class="st0" d="M567.6,437c0,0-15.2,6.4-27.4,0l-2.5,33.3c0,0,0.5,14.7-1.5,23s1.5,42.1,1.5,42.1s30.4-0.5,36.2-11.8
	c0,0,12.7-25.5,10.3-34.3l26.4,5.9l15.7,17.1c0,0,26.9-12.7,24.5-28.4l-36.2-42.6l-10.8-22C603.8,419.4,580.3,439.4,567.6,437z"/>
<path class="st21" d="M626.3,512.4l-15.7-17.1l-26.5-5.9c0.1,0.2,0.1,0.5,0.2,0.7c0.1,0.5,0.1,0.9,0.1,1.4
	c0.4,10.2-10.6,32.2-10.6,32.2c-5.9,11.3-36.2,11.8-36.2,11.8s-3.5-33.8-1.5-42.1s1.5-23,1.5-23l2.4-32.1l0.1-1.2
	c3.4,1.7,7.2,2.7,11,2.8c5.4,0.2,10.8-0.7,15.9-2.6l0.5-0.2c0.3,0.1,0.6,0.1,0.9,0.1c10.5,1.2,27.4-11.4,33.3-16
	c1.3-1.1,2.1-1.7,2.1-1.7l10.8,22l36.2,42.6c0.1,0.5,0.1,1,0.1,1.5C651.6,500.5,626.3,512.4,626.3,512.4z"/>
<path class="st28" d="M594.1,320.9c-10.9,19.7-27,8.8-31.5,5.2l1.5-0.1c4.2,3.3,10,3.8,12.9,3.8c1,0,2,0.1,3,0.2
	c8.3,1.2,10.8-9.8,10.8-9.8L594.1,320.9z"/>
<path class="st29" d="M717.2,568.4c3.4-0.2,6.7,1.4,8.6,4.3c0,0,12.7,10.7,19.6,11.7c0,0,20.6,8.8,14.7,21.1s-20.1,1-20.1,1
	s-15.2-13.7-20.1-12.7c0,0-13.5-8.1-11-15.9c0,0,5.9,6,7.7,1.4c0.6-1.7,1.3-3.4,2.1-5C719.6,572.3,720.1,569.9,717.2,568.4z"/>
<path class="st21" d="M564.3,437.1c-5.1,1.5-15.4,3.5-24.2-1.1l-0.2,2.2C550.6,442.1,562.4,437.9,564.3,437.1z"/>
<path class="st21" d="M575.5,435.4c-2.6,0.8-5.3,1.1-7.9,0.7c0,0-1.1,0.5-2.9,1C567.8,437.6,571.6,436.8,575.5,435.4z"/>
<path class="st21" d="M651,485.5c-0.5,14.5-24.6,26-24.6,26l-0.3-0.4c6.7-3.7,23.9-14.4,21.9-27.1l-36.2-42.6l-9.9-20.3
	c1.3-1.1,2.1-1.7,2.1-1.7l10.8,22l36.2,42.6C650.9,484.5,651,485,651,485.5z"/>
<path class="st21" d="M581.3,489.4c2.4,8.8-10.3,34.3-10.3,34.3c-1.7,3.3-5.6,5.7-10.2,7.4c5.8-1.7,11-4.4,13.2-8.4
	c0,0,11.3-22.6,10.6-32.6L581.3,489.4z"/>
<path class="st30" d="M654.8,236.1c0,0.6,0,1.2,0,1.7c0,0.3,0,0.6-0.1,0.9c-0.4,5.1-2.1,10.1-5,14.4c-0.2,0.3-0.4,0.6-0.6,0.9
	c-5.5,7.8-14.5,12.4-24,12.4c-0.7,0-1.3,0-2-0.1c-0.7-0.1-1.2-0.1-1.8-0.2l0,0c-8.6-1.2-16.2-6-20.9-13.3c-0.2-0.2-0.3-0.5-0.4-0.7
	v0c-2.9-4.8-4.5-10.3-4.5-15.9c0-1.5,0.1-3,0.3-4.5l0.2-1c1.6-9.3,7.5-17.3,15.9-21.6l1.1-0.5c7.1-3.3,15.2-3.6,22.5-0.9
	c0.9,0.4,1.9,0.8,2.8,1.2l0,0c6.6,3.3,11.8,9,14.6,15.9c0.1,0.2,0.2,0.5,0.3,0.7C654.3,228.8,654.9,232.5,654.8,236.1z"/>
<path class="st31" d="M652.9,225.4c-1.9,0.6-3.9,0.9-5.9,0.9h-0.3h-0.8c-0.5,0-0.9-0.1-1.4-0.1c-3.9-0.5-7.6-1.8-10.9-4l0,0
	c-8.7-8.9-17.3-11.9-21.9-13l1.1-0.5c4.5,1.1,11.9,4,19.6,11.2c2,1.9,4.3,3.3,6.9,4.3c1.8,0.6,3.6,1.1,5.4,1.3
	c0.4,0,0.8,0.1,1.2,0.1h0.8c2,0.1,4.1-0.2,6-0.8C652.7,225,652.8,225.2,652.9,225.4z"/>
<path class="st31" d="M654.8,237.9c0,0.3,0,0.6-0.1,0.9c-2.6-1.6-5.3-3-8.2-4l-0.8-0.3c-6.8-2.3-13.9-3.8-21-4.6
	c-16.8-2.1-25.2-0.1-29.2,1.8l0.2-1c4.3-1.9,12.8-3.6,29.1-1.6c7.1,0.8,14.2,2.3,21,4.6l0.8,0.3
	C649.5,234.9,652.2,236.2,654.8,237.9z"/>
<path class="st31" d="M646.7,234c0,0.3-0.1,0.5-0.1,0.8c-0.2,1.4-0.4,2.8-0.7,4.3c-0.2,1.1-0.5,2.2-0.8,3.2
	c-0.1,0.3-0.2,0.5-0.2,0.8c-3.8,12.2-11.5,18.3-17.6,21.4c-1.3,0.7-2.6,1.2-4,1.7l-1.8-0.2l0,0c1.9-0.6,3.8-1.4,5.6-2.3
	c6-3,13.6-9.1,17.3-21.2c0.1-0.2,0.2-0.5,0.2-0.7c0.3-1,0.5-2,0.8-3c0.3-1.5,0.6-3,0.8-4.4c0-0.3,0.1-0.5,0.1-0.8
	c0.3-2.5,0.3-5,0-7.5c0-0.3-0.1-0.5-0.1-0.8c-0.6-5.4-2.9-10.4-6.7-14.4c-1.2-1.3-2.6-2.4-4-3.4c0.9,0.4,1.9,0.8,2.8,1.2l0,0
	c0.6,0.5,1.2,1.1,1.7,1.7c3.8,4.1,6.2,9.3,6.8,14.9c0,0.2,0.1,0.5,0.1,0.8C646.9,228.8,646.9,231.4,646.7,234z"/>
<path class="st31" d="M649.7,253.1c-0.2,0.3-0.4,0.6-0.6,0.9c-0.8-3.6-2.2-7.1-4-10.4c-0.1-0.2-0.2-0.3-0.3-0.4
	c-0.2-0.2-0.4-0.3-0.7-0.5c-3.8-1.9-15.3,1.3-23.9,5.9c-6.6,3.6-15.2,4.2-19.9,4.2l-0.5-0.7v0c4.5,0,13.3-0.5,20-4.1
	c8-4.3,19.9-8,24.5-6c0.2,0.1,0.5,0.2,0.7,0.4c0.3,0.2,0.6,0.5,0.8,0.8C647.5,246.3,648.8,249.7,649.7,253.1z"/>
<rect x="259.2" y="744.5" class="st21" width="44" height="5"/>
<polygon class="st28" points="181.9,95.6 79.2,199 79.2,223.5 195.7,91.1 "/>
<polygon class="st28" points="217.3,85.6 79.2,260.5 79.2,286.5 251.8,80.5 "/>
<g id="vasern-blue" transform="translate(0 0.003)">
	<path id="Path_31" class="st28" d="M589,387.3l-8.3,4.8c-3.3,1.7-7.2,1.7-10.5,0l-8.2-4.8c-2-1.2-2.6-2.8-1.9-4.3
		c0.4-0.6,1.2-0.8,1.8-0.4c0,0,0,0,0,0l0,0l8.2,5c3.3,1.7,7.2,1.7,10.5,0l8.3-5l0,0c0.6-0.4,1.4-0.2,1.8,0.4c0,0,0,0,0,0
		C591.6,384.4,591,386.1,589,387.3z"/>
	<path id="Path_32" class="st28" d="M589.9,380.5c-0.3,0.3-0.6,0.5-1,0.7l-8.3,5c-3.3,1.7-7.2,1.7-10.5,0l-8.2-5
		c-0.4-0.2-0.7-0.4-1-0.7c-1.1-0.8-1.5-2.2-1-3.5c0.4-0.7,1.2-0.9,1.8-0.5c0,0,0.1,0,0.1,0.1l0,0l2.8,1.7l5.4,3.2
		c3.3,1.7,7.2,1.7,10.5,0l5.5-3.2l2.8-1.6l0,0c0.6-0.4,1.5-0.2,1.9,0.4c0,0,0,0.1,0.1,0.1C591.4,378.2,591,379.6,589.9,380.5z"/>
	<path id="Path_33" class="st28" d="M590,374.3c-0.3,0.3-0.7,0.6-1,0.8l-2.8,1.7l-5.5,3.2c-3.3,1.7-7.2,1.7-10.5,0l-5.4-3.2
		l-2.8-1.7c-0.4-0.2-0.7-0.5-1-0.8c-1.8-1.7-1.4-3.9,1-5.4l8.2-4.8c3.3-1.7,7.2-1.7,10.5,0l8.3,4.8
		C591.5,370.4,591.8,372.6,590,374.3z"/>
	<path id="Path_9" class="st0" d="M570.6,371l4,3.9c0.3,0.3,0.8,0.3,1.1,0c0,0,0.1-0.1,0.1-0.1l1.3-1.8l3.8,3.4l-3.5-6.9
		c-0.2-0.4-0.6-0.5-1-0.3c-0.1,0.1-0.2,0.1-0.3,0.2l-0.8,1.2l-1.7-2.7c-0.2-0.4-0.7-0.5-1.1-0.2c-0.1,0.1-0.2,0.1-0.2,0.2l-1.7,2.4
		C570.3,370.3,570.3,370.7,570.6,371z"/>
</g>
</svg>
