<svg xmlns="http://www.w3.org/2000/svg" viewBox="0 0 400 400">
  <defs>
    <style>
      .cls-1 {
        fill: #263238;
      }

      .cls-2 {
        fill: #fa0;
      }

      .cls-3 {
        fill: #ffce00;
      }

      .cls-4 {
        fill: #ffec00;
      }

      .cls-5 {
        fill: #cb9c00;
      }
    </style>
  </defs>
  <g id="Group_6" data-name="Group 6" transform="translate(-75 -75)">
    <path id="Path_7" data-name="Path 7" class="cls-1" d="M246.075,446.1c-40.427,0-81.224-7.414-122.021-22.243a92.99,92.99,0,0,1-56-55.978c-29.3-80.816-29.3-162.743,0-243.559a92.99,92.99,0,0,1,56-55.978C164.48,53.514,205.648,46.1,246.075,46.1S327.3,53.514,368.1,68.343a92.99,92.99,0,0,1,56,55.978c29.3,80.816,29.3,162.743,0,243.559a92.99,92.99,0,0,1-56,55.978C327.3,438.686,286.5,446.1,246.075,446.1Z" transform="translate(28.925 28.9)"/>
    <g id="vasern-icon" transform="translate(131 131)">
      <path id="Path_8_1_" class="cls-2" d="M192.141,33.33l76.036,50.137c26.5,17.477,26.5,46.461,0,63.938l-76.036,50.156c-26.5,17.477-69.669,17.477-96.658,0l-75.56-50.168c-26.5-17.477-26.5-46.461,0-63.938L95.959,33.319C122.472,15.391,165.643,15.391,192.141,33.33Z" transform="translate(-0.05 77.33)"/>
      <path id="Path_7_1_" class="cls-3" d="M192.141,23.231l76.036,50.815c26.5,17.708,26.5,47.108,0,64.835l-76.036,51.346c-26.5,17.708-69.669,17.708-96.658,0l-75.56-51.307c-26.5-17.708-26.5-47.108,0-64.835L95.974,23.231C122.472,5.523,165.643,5.523,192.141,23.231Z" transform="translate(-0.05 38.17)"/>
      <path id="Path_6_1_" class="cls-4" d="M192.141,13.429l76.036,50.137c26.5,17.477,26.5,46.461,0,63.938l-76.036,50.156c-26.5,17.477-69.669,17.477-96.658,0l-75.56-50.168c-26.5-17.477-26.5-46.461,0-63.938L95.479,13.429C122.472-4.51,165.643-4.51,192.141,13.429Z" transform="translate(-0.05 0.025)"/>
      <path id="Path_9_1_" class="cls-5" d="M20.9,42.809,62.144,83.168,76.383,61.995l30.441,27.567-32.4-65.443L61.66,41.827,42.981,11.8Z" transform="translate(81.372 43.603)"/>
    </g>
  </g>
</svg>
