<?xml version="1.0" encoding="utf-8"?>
<!-- Generator: Adobe Illustrator 22.0.0, SVG Export Plug-In . SVG Version: 6.00 Build 0)  -->
<svg version="1.1" id="Group_3_1_" xmlns="http://www.w3.org/2000/svg" xmlns:xlink="http://www.w3.org/1999/xlink" x="0px" y="0px"
	 viewBox="0 0 75 74.8" style="enable-background:new 0 0 75 74.8;" xml:space="preserve">
<style type="text/css">
	.st0{fill:#FFAA00;}
	.st1{fill:#FFCE00;}
	.st2{fill:#FFEC00;}
	.st3{fill:#CB9C00;}
</style>
<path id="Path_8_1_" class="st0" d="M50,28.7l19.8,13c6.9,4.5,6.9,12.1,0,16.6L50,71.4c-6.9,4.5-18.1,4.5-25.2,0l-19.7-13
	c-6.9-4.5-6.9-12.1,0-16.6l19.8-13C31.9,24.1,43.1,24.1,50,28.7z"/>
<path id="Path_7_1_" class="st1" d="M50,15.9l19.8,13.2c6.9,4.6,6.9,12.2,0,16.8L50,59.3c-6.9,4.6-18.1,4.6-25.2,0L5.2,46
	c-6.9-4.6-6.9-12.2,0-16.8L25,15.9C31.9,11.4,43.1,11.4,50,15.9z"/>
<path id="Path_6_1_" class="st2" d="M50,3.5l19.8,13c6.9,4.5,6.9,12.1,0,16.6L50,46.2c-6.9,4.5-18.1,4.5-25.2,0l-19.7-13
	c-6.9-4.5-6.9-12.1,0-16.6l19.7-13C31.9-1.2,43.1-1.2,50,3.5z"/>
<path id="Path_9_1_" class="st3" d="M26.6,22.4l10.7,10.5l3.7-5.5l7.9,7.2l-8.4-17l-3.3,4.6l-4.9-7.8L26.6,22.4z"/>
</svg>
