<svg xmlns="http://www.w3.org/2000/svg" viewBox="0 0 41.963 41.978">
  <defs>
    <style>
      .cls-1 {
        fill: #253858;
      }

      .cls-2 {
        fill: #fff;
      }
    </style>
  </defs>
  <g id="vasern-blue" transform="translate(0 0.003)">
    <path id="Path_7" data-name="Path 7" class="cls-1" d="M20.99,41.975A37.307,37.307,0,0,1,8.183,39.656a9.759,9.759,0,0,1-5.878-5.888,36.584,36.584,0,0,1,0-25.561A9.769,9.769,0,0,1,8.183,2.332a36.29,36.29,0,0,1,25.611,0,9.759,9.759,0,0,1,5.864,5.874,36.584,36.584,0,0,1,0,25.561,9.752,9.752,0,0,1-5.864,5.888,37.289,37.289,0,0,1-12.8,2.319Z" transform="translate(0 0)"/>
    <path id="Path_31" data-name="Path 31" class="cls-2" d="M46.536,73.751l-7.014,4.132a9.726,9.726,0,0,1-8.912,0l-6.951-4.136c-1.685-.991-2.206-2.436-1.569-3.707a1.115,1.115,0,0,1,1.554-.354h0l6.965,4.238a9.6,9.6,0,0,0,8.912,0l7.014-4.249h0a1.115,1.115,0,0,1,1.554.354C48.742,71.312,48.218,72.756,46.536,73.751Z" transform="translate(-14.099 -44.892)"/>
    <path id="Path_32" data-name="Path 32" class="cls-2" d="M47.329,58.451a4.723,4.723,0,0,1-.821.613l-7.014,4.249a9.622,9.622,0,0,1-8.912,0l-6.951-4.26a5.148,5.148,0,0,1-.843-.6,2.591,2.591,0,0,1-.814-2.985,1.147,1.147,0,0,1,1.629-.425h0l2.362,1.416,4.6,2.73a9.726,9.726,0,0,0,8.912,0l4.642-2.737,2.372-1.4h0a1.144,1.144,0,0,1,1.629.425A2.546,2.546,0,0,1,47.329,58.451Z" transform="translate(-14.069 -35.437)"/>
    <path id="Path_33" data-name="Path 33" class="cls-2" d="M47.423,32.167a4.9,4.9,0,0,1-.882.659l-2.372,1.416-4.642,2.723a9.726,9.726,0,0,1-8.912,0l-4.607-2.723-2.344-1.416a4.9,4.9,0,0,1-.878-.662c-1.512-1.416-1.222-3.374.878-4.6l6.951-4.136a9.5,9.5,0,0,1,8.912,0l7.014,4.136C48.637,28.8,48.928,30.73,47.423,32.167Z" transform="translate(-14.103 -14.415)"/>
    <path id="Path_9" data-name="Path 9" class="cls-1" d="M47.279,36.4l3.378,3.3a.669.669,0,0,0,1.009-.1l1.062-1.558,3.187,2.893-2.925-5.913a.641.641,0,0,0-1.1-.092l-.708.995-1.438-2.312a.659.659,0,0,0-1.094-.035L47.215,35.6A.623.623,0,0,0,47.279,36.4Z" transform="translate(-30.421 -21.513)"/>
  </g>
</svg>
