<svg id="Layer_1" data-name="Layer 1" xmlns="http://www.w3.org/2000/svg" viewBox="0 0 118.56 118.55"><defs><style>.cls-1{fill:#065fd4;}.cls-2{fill:#fff;}</style></defs><title>vasern-blue</title><g id="Group_6" data-name="Group 6"><path id="Path_7" data-name="Path 7" class="cls-1" d="M59.28,118.55A105.36,105.36,0,0,1,23.11,112,27.56,27.56,0,0,1,6.51,95.37a103.32,103.32,0,0,1,0-72.19A27.59,27.59,0,0,1,23.11,6.59a102.49,102.49,0,0,1,72.33,0A27.56,27.56,0,0,1,112,23.18a103.32,103.32,0,0,1,0,72.19A27.54,27.54,0,0,1,95.44,112,105.31,105.31,0,0,1,59.28,118.55Z" transform="translate(0 0)"/><path class="cls-2" d="M91.61,81.51,71.8,93.18c-6.9,4.07-18.14,4.07-25.17,0L27,81.5c-4.76-2.8-6.23-6.88-4.43-10.47a3.15,3.15,0,0,1,4.39-1l0,0L46.63,82c7,4.13,18.27,4.13,25.17,0l19.81-12,0,0A3.15,3.15,0,0,1,96,71C97.84,74.62,96.36,78.7,91.61,81.51Z" transform="translate(0 0)"/><path class="cls-2" d="M93.93,65a13.34,13.34,0,0,1-2.32,1.73l-19.81,12c-6.9,4.12-18.14,4.12-25.17,0L27,66.7A14.54,14.54,0,0,1,24.62,65c-2.72-2.51-3.48-5.6-2.3-8.43a3.24,3.24,0,0,1,4.6-1.2l0,0,6.67,4,13,7.71c7,4.07,18.27,4.07,25.17,0l13.11-7.73,6.7-3.94,0,0a3.23,3.23,0,0,1,4.6,1.2C97.41,59.38,96.64,62.45,93.93,65Z" transform="translate(0 0)"/><path class="cls-2" d="M94.1,50.14A13.83,13.83,0,0,1,91.61,52l-6.7,4L71.8,63.69c-6.9,4.07-18.14,4.07-25.17,0L33.62,56,27,52a13.85,13.85,0,0,1-2.48-1.87c-4.27-4-3.45-9.53,2.48-13L46.63,25.45c7-4.18,18.27-4.18,25.17,0L91.61,37.13C97.53,40.62,98.35,46.08,94.1,50.14Z" transform="translate(0 0)"/><path id="Path_9" data-name="Path 9" class="cls-1" d="M47.61,42.05l9.54,9.33A1.89,1.89,0,0,0,60,51.09l3-4.4,9,8.17-8.26-16.7a1.81,1.81,0,0,0-3.1-.26l-2,2.81-4.06-6.53a1.86,1.86,0,0,0-3.09-.1l-4.06,5.7A1.76,1.76,0,0,0,47.61,42.05Z" transform="translate(0 0)"/></g></svg>