<svg xmlns="http://www.w3.org/2000/svg" viewBox="0 0 270.912 42.083">
  <defs>
    <style>
      .cls-1 {
        fill: #fff;
      }
    </style>
  </defs>
  <g id="Vasern-Text" transform="translate(-378.4 -78.69)">
    <path id="Path_16" data-name="Path 16" class="cls-1" d="M378.4,79.1h15.17a1.54,1.54,0,0,1,1.53,1.53v.55a1.53,1.53,0,0,1-1.31,1.51l-1.58.24a1.53,1.53,0,0,0-1.23,2l7.62,22.87v.09a1.53,1.53,0,0,0,3,0h0v-.08l7.16-22.87a1.53,1.53,0,0,0-1.22-2l-1.26-.21A1.54,1.54,0,0,1,405,81.2v-.57a1.54,1.54,0,0,1,1.53-1.53h10.24a1.54,1.54,0,0,1,1.53,1.53v.61a1.55,1.55,0,0,1-1.23,1.51l-1.41.28a1.54,1.54,0,0,0-1.15,1l-12.06,35.23a1.53,1.53,0,0,1-1.45,1h-4.34a1.52,1.52,0,0,1-1.43-1L382,84a1.53,1.53,0,0,0-1.12-1l-1.26-.27a1.54,1.54,0,0,1-1.22-1.5Z"/>
    <path id="Path_17" data-name="Path 17" class="cls-1" d="M424.1,103.8c3.4-1.7,7.7-2.5,13-2.6V100a10.4,10.4,0,0,0-.5-3.5,3.51,3.51,0,0,0-1.7-1.9,8.36,8.36,0,0,0-3.6-.6,14.26,14.26,0,0,0-4.8.7c-1,.36-2.08.78-3.2,1.25a1.5,1.5,0,0,1-1.92-.74l-.51-1a1.48,1.48,0,0,1,.56-1.93c.46-.28,1-.58,1.67-.93a24.58,24.58,0,0,1,4.6-1.7,20.47,20.47,0,0,1,5.6-.7,16.74,16.74,0,0,1,6.6,1.1,6.47,6.47,0,0,1,3.4,3.5,16.74,16.74,0,0,1,1,6.5v15.3a1.5,1.5,0,0,0,1.5,1.5h0a1.5,1.5,0,0,1,1.5,1.5v.39a1.49,1.49,0,0,1-1.23,1.48,17.369,17.369,0,0,1-1.87.23,24.869,24.869,0,0,1-3.6.3,3.79,3.79,0,0,1-2.5-.6,3.17,3.17,0,0,1-.6-2.3v-1.5a15.441,15.441,0,0,1-3.9,3,10.67,10.67,0,0,1-5.3,1.3,10.07,10.07,0,0,1-4.6-1.1,9.1,9.1,0,0,1-3.34-3,1.744,1.744,0,0,1-.11-.18A9.79,9.79,0,0,1,419,111.4C419,108,420.7,105.5,424.1,103.8Zm10.47,11.46a12,12,0,0,0,1.93-1.14,1.53,1.53,0,0,0,.6-1.21v-6.76a1.5,1.5,0,0,0-1.59-1.5,11.66,11.66,0,0,0-5.81,1.65,5.09,5.09,0,0,0-2.4,4.3,5.8,5.8,0,0,0,1.2,4,4.44,4.44,0,0,0,3.4,1.4,7.76,7.76,0,0,0,2.53-.67Z"/>
    <path id="Path_18" data-name="Path 18" class="cls-1" d="M456.79,115a1.57,1.57,0,0,0,.52.86,4.8,4.8,0,0,0,1.59.79,11.34,11.34,0,0,0,3.2.6,6.24,6.24,0,0,0,3.9-1.1,3.41,3.41,0,0,0,1.3-2.8,3.26,3.26,0,0,0-1.6-2.9,31.75,31.75,0,0,0-5.4-2.8l-1.5-.7a15.74,15.74,0,0,1-5.7-3.8,9,9,0,0,1-1.9-5.8,7.1,7.1,0,0,1,1.5-4.4,10.49,10.49,0,0,1,4.2-3.1,17.13,17.13,0,0,1,6.2-1.1,27.62,27.62,0,0,1,4.4.3,35.583,35.583,0,0,1,3.9.9c.17.07.34.14.5.19a1.69,1.69,0,0,1,1.2,1.61v4.12a1.68,1.68,0,0,1-1.68,1.68H470a1.68,1.68,0,0,1-1.61-1.19l-.93-3a2.6,2.6,0,0,0-1.5-1,7.46,7.46,0,0,0-2.6-.4,5.7,5.7,0,0,0-3.6,1,3.1,3.1,0,0,0-1.3,2.7,3.92,3.92,0,0,0,.9,2.6,7.42,7.42,0,0,0,2,1.6,40.583,40.583,0,0,0,4.1,1.8,32,32,0,0,1,4.9,2.4,10.24,10.24,0,0,1,3.2,3,7.27,7.27,0,0,1,1.3,4.5,8.15,8.15,0,0,1-3.2,6.6c-2.1,1.7-5.2,2.5-9.2,2.5a24.871,24.871,0,0,1-5-.5c-1.49-.3-3.17-.79-5.05-1.29h-.1a1.68,1.68,0,0,1-1.15-1.59v-4.41a1.68,1.68,0,0,1,1.68-1.68h1.61a1.68,1.68,0,0,1,1.63,1.27Z"/>
    <path id="Path_19" data-name="Path 19" class="cls-1" d="M482.4,116.3c-2.4-2.8-3.5-6.7-3.5-11.6a19.14,19.14,0,0,1,1.8-8.6,13.42,13.42,0,0,1,5.2-5.6,15,15,0,0,1,7.8-1.9c3.7,0,6.5,1,8.5,2.9s3,4.7,3.1,8.2a30.769,30.769,0,0,1-.14,3.82,1.77,1.77,0,0,1-1.77,1.58H488.92a1.78,1.78,0,0,0-1.77,2,11.61,11.61,0,0,0,2.25,5.83,7.28,7.28,0,0,0,6.1,2.8,13.92,13.92,0,0,0,4.4-.7q1.019-.335,2-.77a1.79,1.79,0,0,1,2.4.84h0a1.8,1.8,0,0,1-.6,2.22,18.213,18.213,0,0,1-3.64,1.89,17.73,17.73,0,0,1-6.7,1.3C488.3,120.5,484.7,119.1,482.4,116.3Zm15.1-14.5a22.748,22.748,0,0,0,.1-2.4c0-4.9-1.6-7.3-4.9-7.3a4.87,4.87,0,0,0-4.2,2.1c-1,1.4-1.5,3.9-1.7,7.5h10.7Z"/>
    <path id="Path_20" data-name="Path 20" class="cls-1" d="M509.6,116.7l2.12-.24a1.66,1.66,0,0,0,1.48-1.65v-19a1.65,1.65,0,0,0-1.2-1.55l-1.08-.32a1.65,1.65,0,0,1-1.21-1.59V91.24a1.66,1.66,0,0,1,1.43-1.64l7.07-1h.2l.76.6a1.65,1.65,0,0,1,.64,1.31v.39l-.2,4.5h.2a12.411,12.411,0,0,1,1.8-2.7,17.58,17.58,0,0,1,3.6-2.9,9.39,9.39,0,0,1,4.7-1.2h.61A1.64,1.64,0,0,1,532,90.28v4.28a1.65,1.65,0,0,1-2.1,1.56,7.56,7.56,0,0,0-1.9-.22,12,12,0,0,0-6.24,1.61,1.63,1.63,0,0,0-.76,1.4v15.55a1.67,1.67,0,0,0,1.53,1.66l3.34.26A1.67,1.67,0,0,1,527.4,118h0a1.66,1.66,0,0,1-1.66,1.66H511.26A1.66,1.66,0,0,1,509.6,118Z"/>
    <path id="Path_21" data-name="Path 21" class="cls-1" d="M538.5,94.6l-2.25-.6A1.73,1.73,0,0,1,535,92.3v-1a1.74,1.74,0,0,1,1.5-1.72l7.6-1h.2l.74.58a1.72,1.72,0,0,1,.66,1.36v1.19a.655.655,0,0,1,0,.14l-.09,1.23a16.369,16.369,0,0,1,5-3.1,15.341,15.341,0,0,1,6.2-1.3,10.15,10.15,0,0,1,5.3,1.2,6.32,6.32,0,0,1,2.7,3.9,27,27,0,0,1,.8,7.2v13.66a1.73,1.73,0,0,0,1.53,1.72h.34a1.73,1.73,0,0,1,1.53,1.72h0a1.72,1.72,0,0,1-1.73,1.73H556.53a1.72,1.72,0,0,1-1.73-1.73v-.06a1.73,1.73,0,0,1,1.5-1.71h0a1.73,1.73,0,0,0,1.5-1.71V101a18.18,18.18,0,0,0-.4-4.5,4.07,4.07,0,0,0-1.4-2.4,4.79,4.79,0,0,0-2.9-.7,10.72,10.72,0,0,0-6,2.18,1.71,1.71,0,0,0-.7,1.42v17.62a1.72,1.72,0,0,0,1.47,1.71l.36.06a1.72,1.72,0,0,1,1.47,1.71v.08a1.72,1.72,0,0,1-1.7,1.72H537a1.72,1.72,0,0,1-1.73-1.73v-.09a1.73,1.73,0,0,1,1.46-1.71h.28a1.73,1.73,0,0,0,1.46-1.71v-20Z"/>
    <path id="Path_22" data-name="Path 22" class="cls-1" d="M576.9,83.2l-2.63-.45A1.76,1.76,0,0,1,572.8,81v-.18a1.76,1.76,0,0,1,1.72-1.77c4.33-.1,15.34-.36,16-.36,6.7,0,11.8,1.7,15.2,5.1s5,8.2,5,14.4a25,25,0,0,1-2.5,11.5,18.78,18.78,0,0,1-7.1,7.9,20.22,20.22,0,0,1-10.8,2.8c-.88,0-11.7-.26-16-.36a1.76,1.76,0,0,1-1.72-1.77h0a1.76,1.76,0,0,1,1.56-1.75l1.18-.14a1.76,1.76,0,0,0,1.56-1.75Zm13.2,33.5a10.26,10.26,0,0,0,8.6-4.4c2.1-2.9,3.1-7.2,3.1-13,0-5.5-1-9.7-3.1-12.7s-5.2-4.5-9.6-4.5a21.12,21.12,0,0,0-2.6.2c-.8.1-1.4.2-1.7.2v33.7a19.37,19.37,0,0,0,5.3.5Z"/>
    <path id="Path_23" data-name="Path 23" class="cls-1" d="M618.8,83.2l-2.8-.46A1.77,1.77,0,0,1,614.5,81v-.17a1.76,1.76,0,0,1,1.72-1.77c4.18-.11,14.56-.36,15.28-.36,5.5,0,9.4.8,11.6,2.3a8.07,8.07,0,0,1,3.3,7,9.91,9.91,0,0,1-2.4,6.8,9.767,9.767,0,0,1-1.19,1.13A1.76,1.76,0,0,0,643.3,99a9.85,9.85,0,0,1,2.9,1.61,8.44,8.44,0,0,1,3.1,7,11.48,11.48,0,0,1-4,9.2c-2.7,2.3-7.2,3.5-13.4,3.5-1.35,0-11.64-.25-15.78-.36a1.76,1.76,0,0,1-1.72-1.76h0a1.77,1.77,0,0,1,1.56-1.76l1.18-.14a1.77,1.77,0,0,0,1.56-1.76V83.2Zm10.4,13.7h2.6a6,6,0,0,0,5-2.1,9.4,9.4,0,0,0,1.6-5.9c0-2.4-.6-4.2-1.7-5.3s-3-1.6-5.7-1.6c-.7,0-2.1.1-4.3.2V96.8a15.629,15.629,0,0,0,2.5.1Zm2.4,19.9c3.1,0,5.4-.7,6.8-2.2a9,9,0,0,0,2.1-6.4c0-2.7-.6-4.6-1.9-5.7s-3.3-1.7-6-1.7c-3.1,0-5,0-5.8.1v15.5a22,22,0,0,0,4.8.4Z"/>
  </g>
</svg>
